<?xml version="1.0" encoding="utf-8"?>
<!-- Generator: Adobe Illustrator 19.2.1, SVG Export Plug-In . SVG Version: 6.00 Build 0)  -->
<svg version="1.1" id="图层_1" xmlns="http://www.w3.org/2000/svg" xmlns:xlink="http://www.w3.org/1999/xlink" x="0px" y="0px"
	 viewBox="0 0 22 22" style="enable-background:new 0 0 22 22;" xml:space="preserve">
<style type="text/css">
	.st0{fill-rule:evenodd;clip-rule:evenodd;fill:#33A9FC;}
</style>
<g>
	<path class="st0" d="M18.1,20c-1.1-2.4-9.4-2.2-6.2-5.9c1-1.2,2.1-2.8,2.1-4.6c0-3.2-2.1-5.7-4.7-5.7c-2.6,0-4.7,2.6-4.7,5.7
		c0,1.7,0.7,2.9,2,4.6c2.2,3.2-4.9,3.5-6,5.7c-0.3,0.7-0.4,1.2-0.4,1.8c0,0.1,0,0.2,0,0.2C0.2,22,0.3,22,0.4,22h17.8
		c0.1,0,0.1,0,0.2-0.1c0-0.1,0-0.1,0-0.2C18.4,21,18.3,20.4,18.1,20L18.1,20z"/>
	<path class="st0" d="M20.9,13.4h-2.4v-2.4c0-0.3-0.3-0.6-0.6-0.6c-0.3,0-0.6,0.3-0.6,0.6v2.4H15c-0.3,0-0.6,0.3-0.6,0.6
		c0,0.3,0.3,0.6,0.6,0.6h2.4v2.4c0,0.3,0.3,0.6,0.6,0.6c0.3,0,0.6-0.3,0.6-0.6v-2.4h2.4c0.3,0,0.6-0.3,0.6-0.6
		C21.4,13.7,21.2,13.4,20.9,13.4L20.9,13.4z"/>
</g>
</svg>
