<?xml version="1.0" encoding="utf-8"?>
<!-- Generator: Adobe Illustrator 19.0.0, SVG Export Plug-In . SVG Version: 6.00 Build 0)  -->
<svg version="1.1" id="图层_1" xmlns="http://www.w3.org/2000/svg" xmlns:xlink="http://www.w3.org/1999/xlink" x="0px" y="0px"
	 viewBox="0 0 50 50" style="enable-background:new 0 0 50 50;" xml:space="preserve">
<style type="text/css">
	.st0{fill-rule:evenodd;clip-rule:evenodd;fill:#43A0DE;}
</style>
<g>
	<path class="st0" d="M25,50c13.8,0,25-11.2,25-25S38.8,0,25,0S0,11.2,0,25S11.2,50,25,50L25,50z M26.5,36.6v4.1h-3.6v-4.1H26.5
		L26.5,36.6z M18.8,19.9h-3.8c0-7.2,3.5-10.7,10.4-10.6c6,0.2,9.2,3.2,9.4,8.9c0,2.1-1.4,4.3-4.3,6.8c-2.7,2.5-4.1,4.7-4.1,6.5V33
		h-3.6v-2.2c0-2.2,1.4-4.6,4.3-7.3c2.2-2.2,3.4-3.9,3.6-5.3c-0.1-3.1-1.8-4.8-5-5.1C21.1,12.8,18.7,15.1,18.8,19.9L18.8,19.9z"/>
</g>
</svg>
