<?xml version="1.0" encoding="utf-8"?>
<!-- Generator: Adobe Illustrator 19.2.1, SVG Export Plug-In . SVG Version: 6.00 Build 0)  -->
<svg version="1.1" id="图层_1" xmlns="http://www.w3.org/2000/svg" xmlns:xlink="http://www.w3.org/1999/xlink" x="0px" y="0px"
	 viewBox="0 0 36 36" style="enable-background:new 0 0 36 36;" xml:space="preserve">
<style type="text/css">
	.st0{fill-rule:evenodd;clip-rule:evenodd;fill:#33A9FC;}
</style>
<g>
	<polygon class="st0" points="5.7,5.7 11.2,5.7 11.2,11.2 5.7,11.2 5.7,5.7 	"/>
	<polygon class="st0" points="24.8,5.7 30.4,5.7 30.4,11.2 24.8,11.2 24.8,5.7 	"/>
	<polygon class="st0" points="5.7,24.7 11.2,24.7 11.2,30.3 5.7,30.3 5.7,24.7 	"/>
	<polygon class="st0" points="31.9,19.4 36,19.4 36,23.5 31.9,23.5 31.9,19.4 	"/>
	<polygon class="st0" points="27.7,23.5 31.9,23.5 31.9,27.7 27.7,27.7 27.7,23.5 	"/>
	<polygon class="st0" points="31.9,27.7 36,27.7 36,31.8 31.9,31.8 31.9,27.7 	"/>
	<polygon class="st0" points="27.7,33.1 36,33.1 36,35.8 27.7,35.8 27.7,33.1 	"/>
	<polygon class="st0" points="19.2,27.7 24.6,27.7 24.6,30.4 21.9,30.4 21.9,35.8 19.2,35.8 19.2,27.7 	"/>
	<polygon class="st0" points="19.2,19.4 19.2,26.3 21.9,26.3 21.9,22.1 27.3,22.1 27.3,19.4 19.2,19.4 	"/>
	<path class="st0" d="M16.9,16.9H0.1V0h16.8V16.9L16.9,16.9z M15.1,1.8H1.9v13.2h13.2V1.8L15.1,1.8z"/>
	<path class="st0" d="M36,16.9H19.2V0H36V16.9L36,16.9z M34.2,1.8H21v13.2h13.2V1.8L34.2,1.8z"/>
	<path class="st0" d="M16.9,35.9H0.1V19.1h16.8V35.9L16.9,35.9z M15.1,20.9H1.9v13.2h13.2V20.9L15.1,20.9z"/>
</g>
</svg>
