<?xml version="1.0" encoding="utf-8"?>
<!-- Generator: Adobe Illustrator 19.0.0, SVG Export Plug-In . SVG Version: 6.00 Build 0)  -->
<svg version="1.1" id="图层_1" xmlns="http://www.w3.org/2000/svg" xmlns:xlink="http://www.w3.org/1999/xlink" x="0px" y="0px"
	 viewBox="0 0 50 50" style="enable-background:new 0 0 50 50;" xml:space="preserve">
<style type="text/css">
	.st0{fill:#33A9FC;}
</style>
<path id="XMLID_2_" class="st0" d="M8.4,47.4C5.6,47,3.7,43.6,5,41c1-2.1,4.6-2.5,6.8-2.4c0.7,0,1.3-0.6,1.3-1.3c0-12,0-24,0-36
	c0-0.7-0.6-1.3-1.3-1.3C7.1,0,2.5,0.7,0.6,5.5C-0.2,7.5,0,9.9,0,12.1C0,20,0,27.8,0,35.7c0,1.9-0.1,3.9,0,5.8
	C0.2,46.2,4,49.8,9,49.9c6.9,0.1,30.8,0.1,39.6,0c1.2,0,1.6-1.3,0.9-2.2c-2.3-2.7-2.5-6.4,0-9c1.1-1.2-0.7-3-1.9-1.8
	c-3.5,3.8-3.3,8.8,0,12.6c0.3-0.7,0.6-1.4,0.9-2.2c-12.3,0-24.6,0-36.9,0c-2.7,0-5.4,0.2-7.4-2c-1.8-1.9-1.6-4.4-1.6-6.8
	c0-7.1,0-14.1,0-21.2c0-2.8-0.1-5.6,0-8.4c0-1.7,0.4-3.2,1.6-4.5c2-2.1,4.7-2,7.5-2c-0.4-0.4-0.9-0.8-1.3-1.3c0,12,0,24,0,36
	c0.4-0.4,0.9-0.8,1.3-1.3c-3.6-0.1-8.5,1-9.5,4.8c-1,3.9,1.1,8.4,5.5,9C9.4,50.1,10.1,47.7,8.4,47.4L8.4,47.4z M16.2,2.5
	c8.1,0,16.4-0.4,24.5,0C44,3,47.2,4.9,47.3,8.4c0,0.9,0,1.8,0,2.6c0,5,0,9.9,0,14.9c0,3.8,0,7.7,0,11.5c0.4-0.4,0.9-0.8,1.3-1.3
	c-10.8,0-21.6,0-32.5,0c0.4,0.4,0.9,0.8,1.3,1.3c0-12.1,0-24.1,0-36.2c0-1.6-2.7-1.6-2.7,0c0,12.1,0,24.1,0,36.2
	c0,0.7,0.6,1.3,1.3,1.3c10.8,0,21.6,0,32.5,0c0.7,0,1.3-0.6,1.3-1.3c0-8.8,0-17.6,0-26.4c0-4.6-0.7-8.6-6-10.2
	C42.1,0.3,40,0.1,37.9,0c-4.1,0-4.3,0-6.9,0c-4.9,0-9.9,0-14.8,0C14.5,0,14.5,2.5,16.2,2.5z M25,1.6c0,6.4,0,12.7,0,19.1
	c0,1.4,1.7,1.6,2.5,0.6c1.7-2.2,3.5-4.3,5.2-6.5c-0.7,0.1-1.4,0.2-2.1,0.3c1.8,2.2,3.5,4.3,5.3,6.5c0.7,0.9,2.3,0.1,2.3-0.9
	c0-6.4,0-12.7,0-19.1c0-1.6-2.7-1.6-2.7,0c0,6.4,0,12.7,0,19.1c0.8-0.3,1.5-0.6,2.3-0.9c-1.8-2.2-3.5-4.3-5.3-6.5
	c-0.6-0.7-1.6-0.3-2.1,0.3c-1.7,2.2-3.5,4.3-5.2,6.5c0.8,0.2,1.7,0.4,2.5,0.6c0-6.4,0-12.7,0-19.1C27.7-0.1,25-0.1,25,1.6L25,1.6z
	 M16.2,45.5c9.8,0,19.5,0,29.3,0c1.7,0,1.7-2.5,0-2.5c-9.8,0-19.5,0-29.3,0C14.5,43,14.5,45.5,16.2,45.5L16.2,45.5z"/>
</svg>
