<?xml version="1.0" encoding="utf-8"?>
<!-- Generator: Adobe Illustrator 19.0.0, SVG Export Plug-In . SVG Version: 6.00 Build 0)  -->
<svg version="1.1" id="图层_1" xmlns="http://www.w3.org/2000/svg" xmlns:xlink="http://www.w3.org/1999/xlink" x="0px" y="0px"
	 viewBox="-5.2 0 59.1 50" style="enable-background:new -5.2 0 59.1 50;" xml:space="preserve">
<style type="text/css">
	.st0{fill:#33A9FC;}
</style>
<path id="XMLID_2_" class="st0" d="M37,21.9L37,21.9c-0.9-0.6-5.3-3.2-10.9-6.3c-1.6-0.9-3-1.8-4.2-2.4l0,0c-1.1-0.6-1.8-1.1-2-1.2
	c-0.6-0.3-1.2-0.5-1.7-0.5c-1.8,0-3.2,1.6-3.2,3.6v20c0,1.9,1.4,3.4,3.2,3.4c0.6,0,1.1-0.2,1.4-0.5l0.1-0.1l0.2-0.1
	c0.2-0.1,1-0.6,1.9-1.1C23,36,24.6,35,26.4,34c3.2-1.8,5.8-3.4,7.7-4.6l0.1-0.1c1.6-0.9,2.6-1.5,2.9-1.7c0.9-0.5,1.5-1.7,1.5-2.9
	C38.5,23.6,37.9,22.5,37,21.9z M33.4,25.7c-2.1,1.3-5.9,3.5-8.8,5.1c-1.4,0.8-2.7,1.6-3.8,2.3h-0.1c-0.3,0.2-0.7,0.4-1,0.6l-1.1,0.7
	V15.8l1.1,0.7c1.3,0.8,2.8,1.7,4.6,2.7c3.1,1.9,6.9,4.1,9,5.2l1.2,0.7L33.4,25.7z M14.9,0H3.6c-4.7,0-8.8,4.2-8.8,9.1v31.8
	c0,5,4,9.1,8.8,9.1h41.5c4.9,0,8.8-4,8.8-9.1V9.1c0-5-4-9.1-8.8-9.1H33 M28.7,0h-9.5 M50.2,40.9c0,3-2.2,5.3-5.1,5.3H3.6
	c-2.8,0-5.1-2.3-5.1-5.3V9.1c0-3,2.2-5.3,5.1-5.3h41.5c2.8,0,5.1,2.3,5.1,5.3C50.2,9.1,50.2,40.9,50.2,40.9z"/>
</svg>
