<?xml version="1.0" encoding="utf-8"?>
<!-- Generator: Adobe Illustrator 19.2.1, SVG Export Plug-In . SVG Version: 6.00 Build 0)  -->
<svg version="1.1" id="图层_1" xmlns="http://www.w3.org/2000/svg" xmlns:xlink="http://www.w3.org/1999/xlink" x="0px" y="0px"
	 viewBox="0 0 50 50" style="enable-background:new 0 0 50 50;" xml:space="preserve">
<style type="text/css">
	.st0{fill-rule:evenodd;clip-rule:evenodd;fill:#33A9FC;}
</style>
<g>
	<path class="st0" d="M37.5,33.2c-0.9-0.8-2.2-1.6-3.7-2.3c-2.6-1.1-5.1-1.6-5.2-1.6l-0.6-0.1L25,33.6l-2.9-4.4l-0.6,0.1
		c-0.1,0-2.7,0.5-5.3,1.6c-1.6,0.7-2.8,1.4-3.7,2.3c-1.3,1.1-1.9,2.4-1.9,3.9c0,0.9,0.1,1.8,0.4,2.6l0.2,0.6h27.6l0.2-0.6
		c0.3-0.8,0.4-1.7,0.4-2.6C39.4,35.6,38.8,34.3,37.5,33.2L37.5,33.2 M37.4,38.3H12.6c-0.1-0.4-0.1-0.9-0.1-1.4
		c0-0.9,0.4-1.7,1.3-2.5c0.8-0.7,1.8-1.3,3.2-1.9c1.7-0.7,3.4-1.1,4.3-1.3l3.8,5.7l3.8-5.7c0.9,0.2,2.6,0.7,4.3,1.4
		c3.7,1.6,4.5,3.2,4.5,4.3C37.5,37.4,37.5,37.9,37.4,38.3L37.4,38.3 M16.9,22.2C16.9,22.2,16.9,22.2,16.9,22.2l1.4,0
		c0.4,3.8,3.2,6.7,6.7,6.7c0,0,0,0,0,0c1,0,1.1-1.4,0.2-1.6l0,0c-2.8,0-5.3-2.7-5.3-6s2.3-5.9,5.1-5.9c2.5,0,4.7,2.2,5,5.1h1.7
		c-0.4-3.8-3.2-6.7-6.7-6.7c-3.5,0-6.3,3-6.7,6.8h-1.7l0,0C16,15.9,20.3,12,25,12c4.1,0,7.6,3.1,8.3,6.7c0.1,0.3,0.1,0.8,0.2,1.2
		c-0.2,2.7-3,4.5-5.9,3.8c-0.9-0.2-1.8-0.3-2.5-0.6l0,1.6c0.8,0.2,1.6,0.6,2.5,0.7c4,0.3,6.4-1.3,7.2-3.4l0,0
		c0.2-0.8,0.4-1.7,0.4-2.5c0-5.1-4.5-9.3-10.1-9.3c-5.6,0-10.1,4.1-10.1,9.3c0,0.9,0,1.7,0.2,2.5L16.9,22.2L16.9,22.2 M16.9,22.2
		L16.9,22.2z"/>
	<path class="st0" d="M41.2,1.4H8.8c-4.9,0-8.8,4-8.8,8.8v29.5c0,4.9,4,8.8,8.8,8.8h32.4c4.9,0,8.8-4,8.8-8.8V10.3
		C50,5.4,46.1,1.4,41.2,1.4L41.2,1.4 M47.1,39.3c0,3.5-2.6,6.3-6.1,6.3H9.2c-3.5,0-6.3-2.8-6.3-6.3V10.7c0-3.5,2.8-6.3,6.3-6.3H41
		c3.5,0,6.1,2.8,6.1,6.3V39.3L47.1,39.3 M38.3,30.9L38.3,30.9z"/>
</g>
<circle class="st0" cx="25" cy="24.1" r="1.4"/>
</svg>
