<?xml version="1.0" encoding="utf-8"?>
<!-- Generator: Adobe Illustrator 19.2.1, SVG Export Plug-In . SVG Version: 6.00 Build 0)  -->
<svg version="1.1" id="图层_1" xmlns="http://www.w3.org/2000/svg" xmlns:xlink="http://www.w3.org/1999/xlink" x="0px" y="0px"
	 viewBox="0 0 50 50" style="enable-background:new 0 0 50 50;" xml:space="preserve">
<style type="text/css">
	.st0{fill-rule:evenodd;clip-rule:evenodd;fill:#33A9FC;}
</style>
<path class="st0" d="M28.2,13c-0.2,0-0.4-0.1-0.6-0.1h0.1C27.8,12.9,28,12.9,28.2,13L28.2,13z"/>
<path class="st0" d="M49,0c0.6,0,1,0.5,1,1.1v27.2H28.3V50H1.1C0.5,50,0,49.5,0,48.9V1.1C0,0.5,0.5,0,1.1,0H49L49,0z M30.4,50
	L50,30.4H30.4V50L30.4,50z M29.1,4.7h-7.9v1h7.9V4.7z M25.6,9.2V1.3h-1v7.9H25.6z M41.5,12.1H8.9v1.6h32.6V12.1z M41.1,25.3H8.5v1.6
	h32.6V25.3z M41.5,18.5H8.9v1.6h32.6V18.5z M9.8,39.7L9,40.6l-0.8,0.8c-0.2,0.2-0.9,0.9-1,1.1c-0.2,0.2-0.3,0.3-0.3,0.3
	c-0.1,0.1-0.2,0.2-0.2,0.3c-0.1,0.1-0.1,0.2-0.1,0.3s-0.1,0.2-0.1,0.4c-0.1,0.2-0.1,0.4-0.2,0.6c-0.1,0.2-0.1,0.4-0.2,0.6
	C6,45.2,6,45.3,6,45.4c0,0.2,0,0.3,0.1,0.4c0.1,0.1,0.2,0.1,0.4,0.1c0.1,0,0.2,0,0.4-0.1c0.2-0.1,0.4-0.1,0.6-0.2
	c0.2-0.1,0.4-0.1,0.6-0.2c0.2-0.1,0.3-0.1,0.4-0.2c0.1,0,0.2-0.1,0.3-0.2C8.9,44.9,9,44.9,9,44.8c0,0,0.1-0.1,0.3-0.3
	c0.1-0.2,0.3-0.4,0.6-0.6c0.2-0.2,0.9-1,1.2-1.2l0.8-0.9l2.2-2.3l-2-2L9.8,39.7L9.8,39.7z M15.7,37.3c0-0.2,0-0.4-0.2-0.7
	c-0.1-0.1-0.2-0.3-0.3-0.4c-0.2-0.2-0.5-0.4-0.8-0.4c-0.1,0-0.1,0-0.2,0l0,0c-0.1,0-0.2,0-0.4,0.1c-0.1,0-0.3,0.1-0.4,0.2
	c-0.1,0.1-0.2,0.2-0.4,0.3c-0.1,0.1-0.3,0.3-0.4,0.4l2,2c0.1-0.1,0.1-0.1,0.2-0.2c0.1-0.1,0.1-0.1,0.2-0.2c0.1-0.1,0.2-0.2,0.3-0.3
	s0.2-0.2,0.2-0.3C15.7,37.6,15.7,37.5,15.7,37.3L15.7,37.3L15.7,37.3z"/>
</svg>
