<?xml version="1.0" encoding="utf-8"?>
<!-- Generator: Adobe Illustrator 19.0.0, SVG Export Plug-In . SVG Version: 6.00 Build 0)  -->
<svg version="1.1" id="图层_1" xmlns="http://www.w3.org/2000/svg" xmlns:xlink="http://www.w3.org/1999/xlink" x="0px" y="0px"
	 viewBox="0 0 50 50" style="enable-background:new 0 0 50 50;" xml:space="preserve">
<style type="text/css">
	.st0{fill:#33A9FC;}
</style>
<path id="XMLID_5_" class="st0" d="M1.9,48.3C1.9,48.3,1.8,48.3,1.9,48.3c-1,0-1.8-0.8-1.7-1.8C0.7,35.7,8,26.3,18.3,23.2
	c0.9-0.3,1.9,0.2,2.1,1.2c0.3,0.9-0.2,1.9-1.2,2.1C10.3,29.2,4,37.3,3.6,46.6C3.6,47.6,2.8,48.3,1.9,48.3L1.9,48.3z"/>
<path id="XMLID_4_" class="st0" d="M40.7,33.7c-0.5,0-1-0.2-1.3-0.6c-2.7-3.1-6.3-5.4-10.2-6.6c-0.9-0.3-1.4-1.2-1.2-2.1
	c0.3-0.9,1.2-1.4,2.1-1.2c4.6,1.4,8.6,4,11.8,7.6c0.6,0.7,0.6,1.8-0.2,2.4C41.5,33.5,41.1,33.7,40.7,33.7L40.7,33.7z"/>
<path id="XMLID_8_" class="st0" d="M24.2,27.4c-7.1,0-12.8-5.8-12.8-12.8c0-7.1,5.8-12.8,12.8-12.8C31.3,1.8,37,7.6,37,14.6
	C37.1,21.6,31.3,27.4,24.2,27.4L24.2,27.4z M24.2,5.2c-5.2,0-9.4,4.2-9.4,9.4S19,24,24.2,24s9.4-4.2,9.4-9.4S29.4,5.2,24.2,5.2
	L24.2,5.2z"/>
<path id="XMLID_1_" class="st0" d="M35,48.2c-0.4,0-0.9-0.2-1.2-0.5l-7-7c-0.7-0.7-0.7-1.8,0-2.4c0.7-0.7,1.8-0.7,2.4,0L35,44
	l11.9-11.9c0.7-0.7,1.8-0.7,2.4,0c0.7,0.7,0.7,1.8,0,2.4L36.2,47.7C35.9,48,35.4,48.2,35,48.2L35,48.2z"/>
</svg>
