<?xml version="1.0" encoding="utf-8"?>
<!-- Generator: Adobe Illustrator 19.0.0, SVG Export Plug-In . SVG Version: 6.00 Build 0)  -->
<svg version="1.1" id="图层_1" xmlns="http://www.w3.org/2000/svg" xmlns:xlink="http://www.w3.org/1999/xlink" x="0px" y="0px"
	 viewBox="0 0 50 50" style="enable-background:new 0 0 50 50;" xml:space="preserve">
<style type="text/css">
	.st0{fill:#33a9fc;}
</style>
<g id="XMLID_1_">
	<path id="XMLID_5_" class="st0" d="M33.1,24.4h-8V12.9c0-0.7-0.6-1.3-1.3-1.3c-0.7,0-1.3,0.6-1.3,1.3v13.2c0,0.3,0.1,0.5,0.2,0.7
		c0.3,0.6,0.8,1,1.5,1h8.8c0.9,0,1.7-0.8,1.7-1.7C34.8,25.2,34,24.4,33.1,24.4z"/>
	<path id="XMLID_2_" class="st0" d="M44.3,0H5.7C2.5,0,0,2.3,0,5.2v9.7c0,0,0.1,0,0.1,0v29c0,3.4,2.8,6.2,6.1,6.2h37.6
		c3.4,0,6.1-2.8,6.1-6.2l0-29c0,0,0.1,0,0.1,0V5.2C50,2.3,47.5,0,44.3,0z M25,42.3c-9.7,0-17.5-7.9-17.5-17.6S15.3,7.1,25,7.1
		S42.5,15,42.5,24.7S34.7,42.3,25,42.3z"/>
</g>
</svg>
