<?xml version="1.0" encoding="utf-8"?>
<!-- Generator: Adobe Illustrator 19.0.0, SVG Export Plug-In . SVG Version: 6.00 Build 0)  -->
<svg version="1.1" id="图层_1" xmlns="http://www.w3.org/2000/svg" xmlns:xlink="http://www.w3.org/1999/xlink" x="0px" y="0px"
	 viewBox="0 0 20 20" style="enable-background:new 0 0 20 20;" xml:space="preserve">
<style type="text/css">
	.st0{fill-rule:evenodd;clip-rule:evenodd;fill:#fff;}
</style>
<path class="st0" d="M19.2,3c0-1-0.7-1.7-1.7-1.7c-0.2,0-0.4,0-0.6,0c0-0.5-0.2-0.7-0.6-0.7c-0.1,0-0.3,0.1-0.4,0.2
	c-0.2,0.1-0.2,0.3-0.2,0.6c-0.7,0-1.4,0-2.2,0c0-0.4-0.2-0.7-0.5-0.7c-0.1,0-0.3,0.1-0.4,0.1c-0.2,0.1-0.2,0.4-0.2,0.6
	c-0.7,0-1.4,0-2.2,0c0-0.4-0.2-0.7-0.6-0.7c-0.4,0-0.6,0.3-0.5,0.7c-0.7,0-1.4,0-2.2,0c0-0.5-0.2-0.7-0.6-0.7
	c-0.1,0-0.3,0.1-0.4,0.2C6,0.9,5.9,1.1,6,1.3c-0.7,0-1.4,0-2.2,0c0-0.5-0.2-0.7-0.6-0.7c-0.4,0-0.6,0.3-0.6,0.7c-0.2,0-0.4,0-0.6,0
	C1.1,1.3,0.4,2,0.4,3c0,5,0,10,0,15.1c0,1,0.7,1.7,1.7,1.7c4.5,0,9,0,13.5,0c0.1,0,0.2-0.1,0.3-0.1c1.1-1.1,2.2-2.1,3.3-3.2
	c0.1-0.1,0.1-0.2,0.1-0.3C19.2,11.8,19.2,7.4,19.2,3L19.2,3z M18.3,4.9c0,3.6,0,7.2,0,10.8c0,0.3-0.1,0.4-0.4,0.4
	c-0.4,0-0.8,0-1.2,0c-0.7,0-1.2,0.5-1.2,1.2c0,0.4,0,0.8,0,1.2c0,0.2-0.1,0.3-0.3,0.3c-4.4,0-8.8,0-13.1,0c-0.5,0-0.8-0.3-0.8-0.8
	c0-4.4,0-8.8,0-13.2c0-0.1,0-0.1,0-0.2c5.7,0,11.4,0,17.1,0C18.3,4.8,18.3,4.9,18.3,4.9L18.3,4.9z"/>
<path class="st0" d="M4.5,14.7c0,1.3,0.9,2.2,2.2,2.2c1,0,2.1,0,3.1,0c1.1,0,2.1,0,3.2,0c1.3,0,2.2-0.9,2.2-2.2c0-2,0-4,0-6.1
	c0-1.2-0.9-2.2-2.2-2.2c-2.1,0-4.2,0-6.3,0c-1.2,0-2.2,1-2.2,2.2C4.5,10.7,4.5,12.7,4.5,14.7L4.5,14.7z M12.7,12.9
	c-0.6,0-1.1,0-1.7,0c0,0.6,0,1.1,0,1.7c-0.8,0-1.6,0-2.3,0c0-0.6,0-1.1,0-1.7c-0.6,0-1.2,0-1.8,0c0-0.8,0-1.5,0-2.3
	c0.6,0,1.2,0,1.7,0c0-0.6,0-1.1,0-1.7c0.8,0,1.6,0,2.3,0c0,0.6,0,1.1,0,1.7c0.6,0,1.2,0,1.8,0C12.7,11.3,12.7,12.1,12.7,12.9
	L12.7,12.9z"/>
</svg>
