<?xml version="1.0" encoding="utf-8"?>
<!-- Generator: Adobe Illustrator 19.0.0, SVG Export Plug-In . SVG Version: 6.00 Build 0)  -->
<svg version="1.1" id="图层_1" xmlns="http://www.w3.org/2000/svg" xmlns:xlink="http://www.w3.org/1999/xlink" x="0px" y="0px"
	 viewBox="0 0 50 50" style="enable-background:new 0 0 50 50;" xml:space="preserve">
<style type="text/css">
	.st0{fill-rule:evenodd;clip-rule:evenodd;fill:#fff;}
</style>
<path id="XMLID_7_" class="st0" d="M2.9,21.8H14V23c0,0-1.7,0.5-2.4,1.3c0,1.1-0.2,16.7-0.2,16.7H5.2l0.1-16.5c0,0-1.1-1.3-2.5-1.5
	C2.9,22.5,2.9,21.8,2.9,21.8L2.9,21.8L2.9,21.8L2.9,21.8L2.9,21.8z"/>
<path id="XMLID_6_" class="st0" d="M18.6,21.8h11.1V23c0,0-1.7,0.5-2.4,1.3c0,1.1-0.2,16.7-0.2,16.7H21L21,24.5c0,0-1.1-1.3-2.5-1.5
	V21.8L18.6,21.8L18.6,21.8L18.6,21.8L18.6,21.8z"/>
<path id="XMLID_5_" class="st0" d="M34.8,21.8h11.1V23c0,0-1.7,0.5-2.4,1.3c0,1.1-0.2,16.7-0.2,16.7h-6.2l0.1-16.5
	c0,0-1.1-1.3-2.5-1.5C34.8,22.5,34.8,21.8,34.8,21.8L34.8,21.8L34.8,21.8L34.8,21.8L34.8,21.8z"/>
<polygon id="XMLID_4_" class="st0" points="1.4,43.6 47.4,43.6 47.4,46.1 1.4,46.1 1.4,43.6 1.4,43.6 1.4,43.6 1.4,43.6 "/>
<polygon id="XMLID_3_" class="st0" points="0,47.5 50,47.5 50,50 0,50 0,47.5 0,47.5 0,47.5 0,47.5 "/>
<path id="XMLID_9_" class="st0" d="M25.7,0L50,16.7V19H0v-2.3L23.3,0H25.7L25.7,0L25.7,0L25.7,0L25.7,0z M24.4,7.5
	c-2.3,0-4.1,1.9-4.1,4.1c0,2.3,1.9,4.1,4.1,4.1c2.3,0,4.1-1.9,4.1-4.1C28.6,9.4,26.7,7.5,24.4,7.5L24.4,7.5L24.4,7.5L24.4,7.5
	L24.4,7.5z"/>
</svg>
