<?xml version="1.0" encoding="utf-8"?>
<!-- Generator: Adobe Illustrator 19.0.0, SVG Export Plug-In . SVG Version: 6.00 Build 0)  -->
<svg version="1.1" id="图层_1" xmlns="http://www.w3.org/2000/svg" xmlns:xlink="http://www.w3.org/1999/xlink" x="0px" y="0px"
	 viewBox="0 0 43.2 50" style="enable-background:new 0 0 43.2 50;" xml:space="preserve">
<style type="text/css">
	.st0{fill:#33A9FC;}
</style>
<path id="XMLID_2_" class="st0" d="M42.8,38.5c0-0.1-0.1-0.2-0.1-0.2L38,32.6v-9.2c0-8.3-5.7-15.2-13.2-16.8
	c0.5-0.7,0.8-1.5,0.8-2.5c0-2.3-1.8-4.2-4.1-4.2c-2.3,0-4.1,1.9-4.1,4.2c0,0.9,0.3,1.8,0.8,2.5C10.8,8.2,5.1,15.2,5.1,23.5v9.2
	l-4.6,5.6c-0.1,0.1-0.1,0.1-0.1,0.2C0.1,39,0,39.5,0,40.1c0,2.1,1.6,3.7,3.6,3.7h10.8C15,47.3,18,50,21.6,50c3.6,0,6.6-2.7,7.2-6.2
	h10.8c2,0,3.6-1.7,3.6-3.7C43.2,39.5,43.1,39,42.8,38.5z M21.6,2.1c1.1,0,2,0.9,2,2.1s-0.9,2.1-2,2.1s-2-0.9-2-2.1
	C19.5,3,20.5,2.1,21.6,2.1z M21.6,47.9c-2.5,0-4.5-1.7-5.1-4.1h10.2C26.1,46.2,24.1,47.9,21.6,47.9z M39.6,41.8h-36
	C2.7,41.8,2,41,2,40.1c0-0.2,0-0.4,0.1-0.6l4.8-5.8c0.2-0.2,0.2-0.4,0.2-0.7v-9.6c0-8.3,6.5-15.1,14.4-15.1S36,15.1,36,23.5V33
	c0,0.2,0.1,0.5,0.2,0.7l4.8,5.8c0.1,0.2,0.1,0.4,0.1,0.6C41.1,41,40.4,41.8,39.6,41.8z"/>
</svg>
