<?xml version="1.0" encoding="utf-8"?>
<!-- Generator: Adobe Illustrator 19.2.1, SVG Export Plug-In . SVG Version: 6.00 Build 0)  -->
<svg version="1.1" id="图层_1" xmlns="http://www.w3.org/2000/svg" xmlns:xlink="http://www.w3.org/1999/xlink" x="0px" y="0px"
	 viewBox="0 0 36 36" style="enable-background:new 0 0 36 36;" xml:space="preserve">
<style type="text/css">
	.st0{fill-rule:evenodd;clip-rule:evenodd;fill:#33A9FC;}
</style>
<g>
	<path class="st0" d="M34.1,16.1H19.9V1.9C19.9,0.8,19,0,18,0c-1,0-1.9,0.8-1.9,1.9v14.2H1.9C0.8,16.1,0,17,0,18
		c0,1,0.8,1.9,1.9,1.9h14.2v14.2c0,1,0.8,1.9,1.9,1.9c1,0,1.9-0.8,1.9-1.9V19.9h14.2c1,0,1.9-0.8,1.9-1.9C36,17,35.2,16.1,34.1,16.1
		L34.1,16.1z"/>
</g>
</svg>
