<?xml version="1.0" encoding="utf-8"?>
<!-- Generator: Adobe Illustrator 19.0.0, SVG Export Plug-In . SVG Version: 6.00 Build 0)  -->
<svg version="1.1" id="图层_1" xmlns="http://www.w3.org/2000/svg" xmlns:xlink="http://www.w3.org/1999/xlink" x="0px" y="0px"
	 viewBox="0 0 53.6 50" style="enable-background:new 0 0 53.6 50;" xml:space="preserve">
<style type="text/css">
	.st0{fill:#2ECC71;}
</style>
<path id="XMLID_5_" class="st0" d="M38.2,7.3c-0.6-0.6-1.3-0.9-2.4-0.9h-4.1v2.4C33.9,7.9,36.1,7.5,38.2,7.3L38.2,7.3z"/>
<path id="XMLID_4_" class="st0" d="M32.2,37.3v2.4H7.3v-2.4h23.2c-0.2-0.2-0.4-0.2-0.6-0.6c-0.2-0.2-0.6-0.9,0-1.9l0,0
	c0.2-0.2,0.2-0.2,0.4-0.4h-23V32h24c-3.9-1.9-6.7-4.9-7.7-8.4h-2.8v4.1h-2.4v-4.1h-3.9v-2.4h4.1v-4.1H21v4.1h2.4c0-0.2,0-0.4,0-0.6
	c0-2.8,1.1-5.2,2.6-7.3H7.5V6.4H3.4C1.5,6.4,0,7.9,0,9.9v36.7C0,48.5,1.5,50,3.4,50h32.4c1.9,0,3.4-1.5,3.4-3.4V33.9
	C37.8,35.4,34.8,37.3,32.2,37.3L32.2,37.3z"/>
<path id="XMLID_3_" class="st0" d="M39.9,9.7c-7.7,0-13.7,4.9-13.7,10.9c0,4.3,3,7.9,7.7,9.9c0.4,1.7-1.7,4.3-1.7,4.3
	c-0.4,0.6,0.6,0.4,0.6,0.4c2.6,0,6-2.6,7.3-3.6c7.5,0,13.5-4.9,13.5-10.7C53.6,14.6,47.6,9.7,39.9,9.7L39.9,9.7z"/>
<path id="XMLID_7_" class="st0" d="M29.8,9.9V6.7c0-0.6-0.6-1.3-1.3-1.3h-1.7C26,2.4,23.2,0,19.7,0s-6.2,2.4-7.1,5.4h-1.7
	c-0.6,0-1.3,0.6-1.3,1.3v3.4c0,0.6,0.6,1.3,1.3,1.3h16.3C28.1,10.9,29,10.3,29.8,9.9L29.8,9.9z M19.7,8.6c-1.7,0-3-1.3-3-3
	s1.3-3,3-3c1.7,0,3,1.3,3,3C22.7,7.1,21.5,8.6,19.7,8.6z"/>
</svg>
