<?xml version="1.0" encoding="utf-8"?>
<!-- Generator: Adobe Illustrator 19.2.1, SVG Export Plug-In . SVG Version: 6.00 Build 0)  -->
<svg version="1.1" id="图层_1" xmlns="http://www.w3.org/2000/svg" xmlns:xlink="http://www.w3.org/1999/xlink" x="0px" y="0px"
	 viewBox="0 0 49.7 49.7" style="enable-background:new 0 0 49.7 49.7;" xml:space="preserve">
<style type="text/css">
	.st0{fill:#fff;}
</style>
<title>医生协作</title>
<path class="st0" d="M30.3,40.3c0,0-0.7-0.8-1.5-1.7C28,37.8,27,37,27,37c-1.2-1.2-3-1.2-4.2,0c0,0-1,0.8-1.9,1.6
	c-0.8,0.8-1.4,1.7-1.4,1.7c-1.2,1.2-1.2,3,0,4.2c0,0,0.8,1.1,1.7,1.9c0.8,0.8,1.6,1.4,1.6,1.4c1.2,1.2,3,1.2,4.2,0
	c0,0,0.8-0.6,1.6-1.4c0.8-0.8,1.7-1.9,1.7-1.9C31.4,43.4,31.4,41.5,30.3,40.3L30.3,40.3z M29.2,43.1h-8.7v-1.4h8.7
	C29.2,41.7,29.2,43.1,29.2,43.1z M24.1,46.8V38h1.4v8.7H24.1z M46.8,12.4h-9.6V5.6c0-3.1-2.5-5.6-5.6-5.6H18.1
	c-3.1,0-5.7,2.5-5.7,5.7v6.8H2.9c-1.6,0-2.9,1.3-2.9,2.9l0,9.5h18.6v-3.1H28c1.7,0,3.1,1.4,3.1,3.1v0h18.6l0-9.5
	C49.7,13.7,48.4,12.4,46.8,12.4L46.8,12.4z M18.6,8.7c0-1.4,1.1-2.6,2.5-2.6h7.4c1.4,0,2.5,1.1,2.5,2.5v3.7H18.6V8.7L18.6,8.7z
	 M31.1,34.2V28h18.6v18.8c0,1.6-1.3,2.9-2.9,2.9H2.9c-1.6,0-2.9-1.3-2.9-2.9V28h18.6v6.2H31.1L31.1,34.2z M21.8,24.9h6.2v6.2h-6.2
	V24.9L21.8,24.9z"/>
</svg>
