<?xml version="1.0" encoding="utf-8"?>
<!-- Generator: Adobe Illustrator 19.2.1, SVG Export Plug-In . SVG Version: 6.00 Build 0)  -->
<svg version="1.1" id="图层_1" xmlns="http://www.w3.org/2000/svg" xmlns:xlink="http://www.w3.org/1999/xlink" x="0px" y="0px"
	 viewBox="0 0 50 50" style="enable-background:new 0 0 50 50;" xml:space="preserve">
<style type="text/css">
	.st0{fill-rule:evenodd;clip-rule:evenodd;fill:#33A9FC;}
</style>
<g>
	<path class="st0" d="M44.1,21.6c-0.8,0-1.5,0.7-1.5,1.5v20.2c0,2-1.6,3.7-3.6,3.7H7.3c-2,0-4.4-1.7-4.4-3.7V11.5
		c0-2,2.3-4.2,4.4-4.2h17.1c0.8,0,1.5-0.6,1.5-1.5c0-0.8-0.7-1.5-1.5-1.5H7.3c-4,0-7.3,3.1-7.3,7.1v31.8c0,4,3.3,6.7,7.3,6.7h31.8
		c4,0,6.5-2.6,6.5-6.7V23.1C45.6,22.3,45,21.6,44.1,21.6L44.1,21.6L44.1,21.6z M48.7,6.5l-5.2-5.2c-1.7-1.7-4.7-1.7-6.4,0l-4.2,5
		L10.3,27.9L8.8,40.8l0.7,0.6l12.6-1.7l21.6-22.6l5-4.1C50.4,11.3,50.4,8.2,48.7,6.5L48.7,6.5L48.7,6.5z M12.4,37.8l0.4-6.1l5.6,5.6
		L12.4,37.8L12.4,37.8L12.4,37.8z M21.1,35.8l-6.8-6.8L34.4,8.9l6.7,6.7L21.1,35.8L21.1,35.8L21.1,35.8z M46.5,10.7l-3,3l-7.3-7.3
		l3-3C39.5,3.1,39.9,3,40.3,3c0.4,0,0.8,0.2,1.1,0.4l5.2,5.2C47.1,9.2,47.1,10.1,46.5,10.7L46.5,10.7L46.5,10.7z"/>
</g>
</svg>
