<?xml version="1.0" encoding="utf-8"?>
<!-- Generator: Adobe Illustrator 19.0.0, SVG Export Plug-In . SVG Version: 6.00 Build 0)  -->
<svg version="1.1" id="图层_1" xmlns="http://www.w3.org/2000/svg" xmlns:xlink="http://www.w3.org/1999/xlink" x="0px" y="0px"
	 viewBox="0 -10 50 80" style="enable-background:new 0 0 50 50;" xml:space="preserve">
<style type="text/css">
	.st0{fill:#fff;}
</style>
<g>
	<path class="st0" d="M0.4,36.8c1.1-0.4,2.3-0.9,3.4-1.4c-0.2-0.1-0.2-0.2-0.3-0.3C3.1,34.3,3,33.6,3.1,33l3.9-0.6
		c0.4-0.6,0.8-1.2,1.1-1.9C8.4,29.8,8.6,29,9,28.1c0.2-0.9,0.4-1.9,0.5-2.9c0-0.7,0-1.6-0.1-2.6c-0.2-1-0.4-2.1-0.7-3.1
		c-0.2-1-0.7-2.2-1.2-3.2c-0.5-1-1.1-2-1.9-2.8c-0.7-0.9-1.6-1.5-2.7-2.1c-1-0.5-2.2-0.7-3.5-0.7c-0.3,0-0.6,0-0.8,0
		c-0.2,0-0.6,0-0.8,0.1c-1,0-2,0.2-3,0.5c-1.8,0.5-3.1,1.3-4.2,2.3c-1,1-1.8,2.2-2.3,3.5c-0.5,1.3-0.8,2.6-1,4
		c-0.2,1.5-0.2,2.7-0.2,4c0,1.5,0.1,2.7,0.3,3.6c0.3,1,0.6,1.8,0.9,2.3c0.4,0.6,0.8,1.1,1.3,1.5l3.4,0.6c0,0.3,0,0.6,0,1
		c0,0.2-0.1,0.6-0.2,0.8c-0.2,0.3-0.4,0.6-0.6,0.8c-0.3,0.3-0.6,0.6-1.2,0.9c-0.6,0.5-1.5,0.8-2.3,1c-0.9,0.2-1.8,0.5-2.7,0.7
		c-0.8,0.3-1.5,0.7-2.2,1.2c-0.6,0.5-1,1.2-1.2,2.2c-0.2,1.7-0.3,3.1-0.2,4.1c0.2,1,0.3,1.7,0.6,1.9c0.2,0.2,0.9,0.4,2,0.7
		c1.1,0.2,2.4,0.5,4,0.7c1.4,0.2,2.7,0.3,4.2,0.5c0-1.4,0.1-3.1,0.1-4.8c0.1-1.2,0.1-2.3,0.1-3v-0.2l0.1-0.2c0.8-2.5,3.2-3.3,5.3-4
		C-0.6,37.3-0.1,37,0.4,36.8L0.4,36.8L0.4,36.8z"/>
	<path class="st0" d="M67,45.9c-0.6-1.5-1.7-2.7-3-3.5c-2.6-1.8-5.7-2.4-8.5-4c-0.9-0.6-1.8-1.3-2.2-2.3c-0.2-1.4-0.1-2.8-0.1-4.2
		c0.5-0.4,0.8-0.9,1.1-1.4c0.6-1.1,1-2.3,1.1-3.5c0.5-0.1,0.9-0.4,1.1-0.7c0.5-0.7,0.6-1.5,0.7-2.3c0-0.7-0.2-1.5-0.8-1.9
		c0.7-2.3,1.2-4.8,1-7.3c-0.2-1.5-0.7-3-1.9-4C55,10.1,54,9.7,53,9.5c-0.3-0.3-0.6-0.7-1-0.9c-1-0.6-2.3-0.8-3.5-0.9
		c-2.2,0.1-4.4,0.4-6.2,1.7c-0.9,0.6-1.5,1.5-2,2.5c-0.6,1.1-0.8,2.5-0.9,3.8c-0.1,2.2,0.3,4.3,0.8,6.3c-0.6,0.5-0.8,1.1-0.8,1.8
		c0.1,0.7,0.2,1.4,0.5,2c0.2,0.6,0.6,1,1.3,1.2c0.2,1.1,0.6,2.3,1.1,3.3c0.3,0.6,0.7,1.2,1.2,1.6c0,1.4,0.1,2.8-0.1,4.3
		c-0.1,0.2-0.2,0.3-0.2,0.5c0,0.1,0.1,0.1,0.1,0.1c0.6,0.2,1.1,0.4,1.7,0.6c2.1,0.7,4.4,1.6,5.3,4.1l0.1,0.2v0.2c0,0.6,0,1.8,0,2.9
		c0.1,1.3,0.1,2.8,0.1,4c5.8,0,11.5,0,17.3,0C67.7,47.7,67.4,46.8,67,45.9L67,45.9L67,45.9z"/>
	<path class="st0" d="M42.6,37.7c-2.8-1.1-5.8-2.4-8.6-3.5c-0.8-0.2-1.6-0.4-2.3-0.6c-1-0.6-1.9-2.7-2.4-3.8c-0.5-0.1-1-0.2-1.5-0.2
		c0.1-1.6,1-1.7,1.5-3c0.4-1,0.1-2.5,0.6-3.5c0.4-0.6,1.3-0.6,1.7-1.3c0.4-0.6,0.6-1.5,0.8-2.2c0.2-1.2,0.4-2.9-0.2-4.1
		c-0.4-0.7-0.6-0.8-0.7-1.6c-0.1-1,0.3-4.4,0.4-5.2c0-1.9,0-2-0.5-3.9c0,0-0.6-1.7-1.5-2.2l-1.8-0.3l-1-1c-4.4-2.7-9-0.8-11.5,0.2
		C12,2.7,9.8,6.1,11.4,13.6c0.2,1.3-0.7,1.9-0.6,2.6c0.2,1.5,0.2,5.2,1.6,6.1c0.2,0.1,1.1,0.3,1.1,0.2c0.2,1.5,0.3,3,0.5,4.5
		c0.3,1,1.2,1,1.5,2.4l-1.1,0.3c-0.5,1-1.4,3.1-2.3,3.8c-0.8,0.2-1.5,0.4-2.3,0.6c-2.7,1.1-5.8,2.4-8.5,3.5c-2.5,1-5.5,1.5-6.4,4
		c0,1.8-0.2,6-0.2,8.3h24l1.8-11.9l-1.5-3.1l3.4-1.6l2.8,1.6l-1.6,3.1l2.8,11.9H49c0.1-2.3-0.1-6.5-0.1-8.3
		C48.1,39.2,45.1,38.8,42.6,37.7L42.6,37.7L42.6,37.7z M39.3,38.6c-0.2,0.3-0.4,0.6-0.5,1c-0.1,0.3-0.1,0.6-0.1,1.1v2.5
		c0,0.8,0.1,1.5,0.2,2.1h-1.5c0.2-0.6,0.2-1.3,0.2-2.1v-2.6l-2.2,2.8l-2.2-2.7v2.7c0,0.7,0.1,1.3,0.2,1.9h-1.5
		c0.2-0.6,0.2-1.2,0.2-2.1v-3.7l-0.7-0.9h1.5c0,0.2,0.1,0.4,0.2,0.5c0,0,0.1,0.2,0.4,0.5l1.8,2.2l1.6-2c0.2-0.3,0.4-0.5,0.4-0.6
		c0.1-0.2,0.2-0.4,0.3-0.6H39.3z"/>
</g>
</svg>
