<?xml version="1.0" encoding="utf-8"?>
<!-- Generator: Adobe Illustrator 19.0.0, SVG Export Plug-In . SVG Version: 6.00 Build 0)  -->
<svg version="1.1" id="图层_1" xmlns="http://www.w3.org/2000/svg" xmlns:xlink="http://www.w3.org/1999/xlink" x="0px" y="0px"
	 viewBox="0 0 50 50" style="enable-background:new 0 0 50 50;" xml:space="preserve">
<style type="text/css">
	.st0{fill-rule:evenodd;clip-rule:evenodd;fill:#FFF;}
</style>
<g id="XMLID_6_">
	<path id="XMLID_5_" class="st0" d="M34.6,26.4c0.2-0.1,0.4-0.5,0.4-0.7c1-2.3-2.5-5.8-4.5-4.5c-3.5,3.1-6.7,6.2-10.7,8.4
		c-7.5,4.1-15.5,5.1-15.2,5.1c-1.8,0.1-2.2-1.1-0.8-2.1c1.5-1.1-3.1,0.5-3.6,2.9c0,0.5,0.3,2.9,5.9,2.5c3.3-0.3,8.4-1.1,11.5-2.2
		C24.3,33.6,28.4,31.3,34.6,26.4L34.6,26.4z"/>
	<path id="XMLID_4_" class="st0" d="M29.1,1.4C29.2,1.4,29.2,1.4,29.1,1.4L29.1,1.4L29.1,1.4z"/>
	<path id="XMLID_3_" class="st0" d="M28.8,1.4c0.1,0,0.1,0,0.2,0c0,0,0.1,0,0.1,0C29,1.4,29,1.4,28.8,1.4L28.8,1.4z"/>
	<path id="XMLID_2_" class="st0" d="M48.3,26.1c-0.5,0.1-0.9,0.1-1.3,1.5c-0.2,0.6-0.2,1.1-1.1,2.8c-0.9,1-1.6,1.3-3,0.9
		c-5.2-4.4-10.6-0.6-8,5.3c2.5,5.4-4.9,8-5.6,2.1c0.9-8-6.9-5.8-8.7-1.5c-2.1,3.6-3,5.4-6.1,4.1c-1.2-0.8-2.4-1.8-3.4-2.8
		c-1.1,0.3-2.4,0.4-3.7,0.4c-0.2,0-0.3,0-0.5,0c0.5,0.7,2,2.5,2.6,3c4.3,4.2,10.2,6.8,16.7,6.8c10.3,0,19.1-6.6,22.4-15.8h0
		c0.5-1.4,0.9-2.9,1.1-4.4l0.3-1.7C49.9,26.9,49.5,26,48.3,26.1L48.3,26.1z"/>
	<path id="XMLID_1_" class="st0" d="M5,31.8c2,0,1.3-3.3,1.5-4.6c0.6-4,3.6-8.6,9.7-4.9C15.8,22,19,24.6,22,23.9
		c3.1-0.7,4.9-3.3,4.8-9c0-4.6,4.8-7.7,7.3-7.3c0,0,2.6,0.3,2.8-1.9c0.1-1.5-0.5-2.1-0.5-2.1c-0.7-0.3-2.1-1.5-7.4-2.2
		c-0.4,0-1.9-0.2-2.9-0.2c0,0,0,0,0,0C12.9,1.3,2.2,11.8,2.2,24.9C2.2,28.5,2.4,31.7,5,31.8L5,31.8z"/>
	<path id="XMLID_7_" class="st0" d="M46,20.2c-1.3,0-2.6,0-3.9,0c0,1.3,0,2.6,0,3.9c-1.8,0-3.5,0-5.3,0c0-1.3,0-2.5,0-3.8
		c-1.3,0-2.6,0-4,0c0-1.8,0-3.4,0-5.2c1.3,0,2.6,0,3.9,0c0-1.3,0-2.6,0-3.9c1.8,0,3.5,0,5.3,0c0,1.3,0,2.5,0,3.9c1.3,0,2.6,0,4,0
		C46,16.7,46,18.4,46,20.2L46,20.2z"/>
</g>
</svg>
