<?xml version="1.0" encoding="utf-8"?>
<!-- Generator: Adobe Illustrator 19.2.1, SVG Export Plug-In . SVG Version: 6.00 Build 0)  -->
<svg version="1.1" id="图层_1" xmlns="http://www.w3.org/2000/svg" xmlns:xlink="http://www.w3.org/1999/xlink" x="0px" y="0px"
	 viewBox="0 0 50 50" style="enable-background:new 0 0 50 50;" xml:space="preserve">
<style type="text/css">
	.st0{fill-rule:evenodd;clip-rule:evenodd;fill:#33A9FC;}
</style>
<g>
	<path class="st0" d="M25,50c-3.4,0-6.6-0.7-9.7-2c-3-1.3-5.7-3.1-7.9-5.4c-2.3-2.3-4.1-5-5.4-7.9c-1.3-3.1-2-6.4-2-9.7
		c0-3.4,0.7-6.6,2-9.7c1.3-3,3.1-5.7,5.4-7.9c2.3-2.3,5-4.1,7.9-5.4c3.1-1.3,6.4-2,9.7-2s6.6,0.7,9.7,2c3,1.3,5.7,3.1,7.9,5.4
		c2.3,2.3,4.1,5,5.4,7.9c1.3,3.1,2,6.4,2,9.7c0,3.4-0.7,6.6-2,9.7c-1.3,3-3.1,5.7-5.4,7.9c-2.3,2.3-5,4.1-7.9,5.4
		C31.6,49.3,28.4,50,25,50L25,50z M25,2.3c-3.1,0-6,0.6-8.8,1.8C13.5,5.2,11,6.9,8.9,8.9c-2.1,2.1-3.7,4.5-4.9,7.2
		C2.9,19,2.3,21.9,2.3,25c0,3.1,0.6,6,1.8,8.8c1.1,2.7,2.8,5.1,4.9,7.2c2.1,2.1,4.5,3.7,7.2,4.9c2.8,1.2,5.8,1.8,8.8,1.8
		s6-0.6,8.8-1.8c2.7-1.1,5.1-2.8,7.2-4.9c2.1-2.1,3.7-4.5,4.9-7.2c1.2-2.8,1.8-5.8,1.8-8.8c0-3.1-0.6-6-1.8-8.8
		c-1.1-2.7-2.8-5.1-4.9-7.2c-2.1-2.1-4.5-3.7-7.2-4.9C31,2.9,28.1,2.3,25,2.3L25,2.3z"/>
	<path class="st0" d="M16.7,19.6c0.1-1.6,0.3-2.9,0.6-3.8c0.4-0.9,1-1.8,1.8-2.5c0.9-0.8,1.8-1.3,2.9-1.7c1.1-0.4,2.1-0.5,3.3-0.5
		c2.4,0,4.3,0.7,5.8,2c1.5,1.3,2.3,3.2,2.3,5.4c0,1.1-0.2,2.1-0.7,3c-0.5,0.8-1.4,1.9-3,3.4c-1.7,1.6-2.7,2.7-3,3.5
		c-0.4,0.7-0.6,2-0.6,3.7h-2.8c0.1-1.6,0.3-2.9,0.8-4c0.5-1.1,1.4-2.4,3-4c1.5-1.6,2.5-2.7,2.9-3.3c0.4-0.7,0.6-1.5,0.6-2.5
		c0-1.5-0.5-2.7-1.5-3.6c-1-0.9-2.3-1.4-3.9-1.4c-3.6,0-5.5,2.1-5.8,6.3H16.7L16.7,19.6L16.7,19.6z M26.4,39h-3.1v-3.3h3.1V39
		L26.4,39z"/>
</g>
</svg>
