<?xml version="1.0" encoding="utf-8"?>
<!-- Generator: Adobe Illustrator 19.2.1, SVG Export Plug-In . SVG Version: 6.00 Build 0)  -->
<svg version="1.1" id="图层_1" xmlns="http://www.w3.org/2000/svg" xmlns:xlink="http://www.w3.org/1999/xlink" x="0px" y="0px"
	 viewBox="0 0 50 50" style="enable-background:new 0 0 50 50;" xml:space="preserve">
<style type="text/css">
	.st0{fill-rule:evenodd;clip-rule:evenodd;fill:#33A9FC;}
</style>
<g>
	<path class="st0" d="M44.7,7.1c-0.6-0.5-1.3-0.8-2.1-0.8c-0.1,0-0.1,0-0.2,0c0,0-0.5,0-1.3,0c-1.3,0-3.9-0.1-6.3-0.7
		c-3.1-0.8-6.7-4.3-7.8-5c-0.5-0.3-1.1-0.5-1.7-0.5c-0.6,0-1.2,0.1-1.7,0.5c-0.9,0.7-3.9,4.1-7.6,5c-2.4,0.6-5,0.7-6.3,0.7
		c-0.8,0-1.3,0-1.3,0c-0.1,0-0.1,0-0.2,0c-0.8,0-1.6,0.3-2.1,0.8c-0.6,0.6-1,1.4-1,2.3v7.8c0,28.7,18.9,32.4,19.7,32.6
		c0.2,0,0.4,0,0.6,0c0.2,0,0.4,0,0.6,0c0.8-0.1,19.9-3.8,19.9-32.6V9.4C45.7,8.5,45.3,7.7,44.7,7.1L44.7,7.1L44.7,7.1 M42.6,17.2
		c0,26.5-17.3,29.5-17.3,29.5S8.1,43.7,8.1,17.2V9.4c0,0,0.6,0,1.6,0c1.6,0,4.4-0.1,7.1-0.8c4.3-1.1,8.6-5.4,8.6-5.4
		s4.4,4.4,8.7,5.4c2.7,0.6,5.4,0.8,7,0.8c1,0,1.6,0,1.6,0L42.6,17.2L42.6,17.2L42.6,17.2 M35,15.6L35,15.6z"/>
	<rect x="13.5" y="21.6" class="st0" width="24.7" height="6.2"/>
	
		<rect x="13.5" y="21.6" transform="matrix(-1.836970e-016 1 -1 -1.836970e-016 50.4965 -1.1215)" class="st0" width="24.7" height="6.2"/>
</g>
</svg>
