<?xml version="1.0" encoding="utf-8"?>
<!-- Generator: Adobe Illustrator 19.2.1, SVG Export Plug-In . SVG Version: 6.00 Build 0)  -->
<svg version="1.1" id="图层_1" xmlns="http://www.w3.org/2000/svg" xmlns:xlink="http://www.w3.org/1999/xlink" x="0px" y="0px"
	 viewBox="0 0 50 50" style="enable-background:new 0 0 50 50;" xml:space="preserve">
<style type="text/css">
	.st0{fill-rule:evenodd;clip-rule:evenodd;fill:#33A9FC;}
</style>
<g>
	<path class="st0" d="M47.6,22.5L47.6,22.5z"/>
	<path class="st0" d="M15.3,46H8.5c-2.8,0-5.1-2.5-5.1-5.5V11.6c0-3.1,2.3-5.5,5.1-5.5H39c2.8,0,5.1,2.5,5.1,5.5v2.8
		c0,0.9,0.8,1.7,1.7,1.7c0.9,0,1.7-0.7,1.7-1.7v-2.8c0-4.9-3.8-8.9-8.5-8.9H8.5c-4.7,0-8.5,4-8.5,8.9v28.8c0,4.9,3.8,8.9,8.5,8.9
		h6.8c0.9,0,1.7-0.7,1.7-1.7C17,46.7,16.2,46,15.3,46L15.3,46z M8.5,16c-0.9,0-1.7,0.7-1.7,1.7c0,0.9,0.8,1.7,1.7,1.7H22
		c0.9,0,1.7-0.7,1.7-1.7c0-0.9-0.8-1.7-1.7-1.7H8.5L8.5,16z M20.3,27.7c0-0.9-0.8-1.7-1.7-1.7H8.5c-0.9,0-1.7,0.7-1.7,1.7
		c0,0.9,0.8,1.7,1.7,1.7h10.2C19.6,29.4,20.3,28.6,20.3,27.7L20.3,27.7z M40.7,30.8c2.6-1.8,4.2-4.8,4.2-8.1c0-5.5-4.6-10-10.2-10
		c-5.6,0-10.2,4.5-10.2,10c0,3.3,1.7,6.3,4.2,8.1c-5.4,2.7-9.3,8.5-9.3,13.5c0,0.9,0.8,1.7,1.7,1.7c0.9,0,1.7-0.7,1.7-1.7
		c0-4.6,5.3-11.6,11.8-11.6s11.8,7,11.8,11.6c0,0.9,0.8,1.7,1.7,1.7c0.9,0,1.7-0.7,1.7-1.7C50,39.3,46.1,33.5,40.7,30.8L40.7,30.8z
		 M34.7,29.4c-3.7,0-6.8-3-6.8-6.7c0-3.7,3-6.7,6.8-6.7c3.7,0,6.8,3,6.8,6.7C41.5,26.4,38.5,29.4,34.7,29.4L34.7,29.4z"/>
	<path class="st0" d="M8.1,34.9c-0.7,0-1.3,0.7-1.3,1.7c0,0.9,0.6,1.7,1.3,1.7h10.2c0.7,0,1.3-0.7,1.3-1.7c0-0.9-0.6-1.7-1.3-1.7
		H8.1L8.1,34.9z"/>
</g>
</svg>
