<?xml version="1.0" encoding="utf-8"?>
<!-- Generator: Adobe Illustrator 19.2.1, SVG Export Plug-In . SVG Version: 6.00 Build 0)  -->
<svg version="1.1" id="图层_1" xmlns="http://www.w3.org/2000/svg" xmlns:xlink="http://www.w3.org/1999/xlink" x="0px" y="0px"
	 viewBox="0 0 50 50" style="enable-background:new 0 0 50 50;" xml:space="preserve">
<style type="text/css">
	.st0{fill-rule:evenodd;clip-rule:evenodd;fill:#33A9FC;}
</style>
<g>
	<g>
		<path class="st0" d="M42.5,20.9v-8.6c0-2.8-2.3-5.1-5.1-5.1h-0.1L34.7,2c-0.6-1.2-2-2-3.4-2c-0.3,0-0.6,0-1,0.1l-24,6.7
			C6.2,6.9,5.9,7,5.7,7.2H5.5c-2.8,0-5.1,2.3-5.1,5.1v32.6c0,2.8,2.3,5.1,5.1,5.1h31.9c2.8,0,5.1-2.3,5.1-5.1v-8.6
			c4-0.4,7.1-3.8,7.1-7.7C49.6,24.7,46.5,21.3,42.5,20.9L42.5,20.9z M16.6,7.2l14.6-4.1c0,0,0.1,0,0.1,0c0.2,0,0.5,0.2,0.5,0.3
			l1.9,3.8L16.6,7.2L16.6,7.2L16.6,7.2z M3.6,12.3c0-1.1,0.9-1.9,2-1.9h31.9c1.1,0,2,0.9,2,1.9v8.6h-6.6c-4.4,0-7.9,3.5-7.9,7.7
			s3.6,7.7,7.9,7.7h6.6v8.6c0,1.1-0.9,1.9-2,1.9H5.5c-1.1,0-2-0.9-2-1.9V12.3L3.6,12.3z M46.4,28.6c0,2.5-2.1,4.6-4.8,4.6h-8.9
			c-2.6,0-4.8-2.1-4.8-4.6s2.1-4.6,4.8-4.6h8.9C44.3,24,46.4,26.1,46.4,28.6L46.4,28.6z"/>
		<path class="st0" d="M33.6,25c-2,0-3.6,1.6-3.6,3.6c0,2,1.6,3.6,3.6,3.6c2,0,3.6-1.6,3.6-3.6C37.2,26.7,35.6,25,33.6,25L33.6,25z
			 M34,28.7c0,0.2-0.2,0.4-0.5,0.4c-0.3,0-0.5-0.2-0.5-0.4c0-0.2,0.2-0.4,0.5-0.4C33.8,28.2,34,28.4,34,28.7L34,28.7z"/>
	</g>
	<rect x="6.4" y="26.7" class="st0" width="16.5" height="3.8"/>
	
		<rect x="6.4" y="26.7" transform="matrix(-4.480967e-011 1 -1 -4.480967e-011 43.3057 14.0057)" class="st0" width="16.5" height="3.8"/>
</g>
</svg>
