<?xml version="1.0" encoding="utf-8"?>
<!-- Generator: Adobe Illustrator 19.0.0, SVG Export Plug-In . SVG Version: 6.00 Build 0)  -->
<svg version="1.1" id="图层_1" xmlns="http://www.w3.org/2000/svg" xmlns:xlink="http://www.w3.org/1999/xlink" x="0px" y="0px"
	 viewBox="0 0 50 50" style="enable-background:new 0 0 50 50;" xml:space="preserve">
<style type="text/css">
	.st0{fill-rule:evenodd;clip-rule:evenodd;fill:#fff;}
</style>
<path class="st0" d="M25,0.8H9.1C6,0.8,3.5,3.4,3.5,6.6v36.8c0,3.2,2.5,5.8,5.6,5.8H25h15.9c3.1,0,5.6-2.6,5.6-5.8V6.6
	c0-3.2-2.5-5.8-5.6-5.8H25 M26.2,36.9H13c-0.8,0-1.4-0.6-1.4-1.4c0-0.8,0.6-1.4,1.4-1.4h13.2c0.8,0,1.4,0.6,1.4,1.4
	C27.6,36.3,27,36.9,26.2,36.9L26.2,36.9z M37,26.4H13c-0.8,0-1.4-0.6-1.4-1.4c0-0.8,0.6-1.4,1.4-1.4h24c0.8,0,1.4,0.6,1.4,1.4
	C38.4,25.8,37.8,26.4,37,26.4L37,26.4z M37,15.9H13c-0.8,0-1.4-0.6-1.4-1.4c0-0.8,0.6-1.4,1.4-1.4h24c0.8,0,1.4,0.6,1.4,1.4
	C38.4,15.3,37.8,15.9,37,15.9L37,15.9z M34.2,46.3l-5.4,1.5l1.5-5.4L34.2,46.3L34.2,46.3z M44.8,35.7L43.5,37l-3.9-3.9l1.3-1.3
	c0,0,0.6-0.6,1.3,0c0.6,0.6,1.9,1.9,2.6,2.6C45.4,35,44.8,35.7,44.8,35.7L44.8,35.7z M43.1,37.4l-8.6,8.6L30.7,42l8.6-8.6L43.1,37.4
	L43.1,37.4z"/>
</svg>
