<?xml version="1.0" encoding="utf-8"?>
<!-- Generator: Adobe Illustrator 19.2.1, SVG Export Plug-In . SVG Version: 6.00 Build 0)  -->
<svg version="1.1" id="图层_1" xmlns="http://www.w3.org/2000/svg" xmlns:xlink="http://www.w3.org/1999/xlink" x="0px" y="0px"
	 viewBox="0 0 50 50" style="enable-background:new 0 0 50 50;" xml:space="preserve">
<style type="text/css">
	.st0{fill-rule:evenodd;clip-rule:evenodd;fill:#33A9FC;}
</style>
<g>
	<path class="st0" d="M25,15.2c-5.4,0-9.8,4.4-9.8,9.8c0,5.4,4.4,9.8,9.8,9.8c5.4,0,9.8-4.4,9.8-9.8C34.8,19.6,30.4,15.2,25,15.2
		L25,15.2z M25,32.6c-4.2,0-7.6-3.4-7.6-7.6c0-4.2,3.4-7.6,7.6-7.6s7.6,3.4,7.6,7.6C32.6,29.2,29.2,32.6,25,32.6L25,32.6z M50,28.6
		v-7.1l-8.1-2.3c-0.2-0.6-0.5-1.3-0.8-1.9l4.1-7.4l-5.1-5.1l-7.4,4.1c-0.6-0.3-1.2-0.5-1.9-0.8L28.6,0h-7.1l-2.3,8.1
		c-0.6,0.2-1.3,0.5-1.9,0.8L9.8,4.8l-5,5.1l4.1,7.4c-0.3,0.6-0.5,1.2-0.8,1.9L0,21.4v7.1l8.1,2.3c0.2,0.6,0.5,1.3,0.8,1.9l-4.1,7.4
		l5,5.1l7.4-4.1c0.6,0.3,1.2,0.5,1.9,0.8l2.3,8.1h7.1l2.3-8.1c0.6-0.2,1.3-0.5,1.9-0.8l7.4,4.1l5.1-5.1l-4.1-7.4
		c0.3-0.6,0.5-1.2,0.8-1.9L50,28.6L50,28.6z M39.1,33.7c1,4,3.3,6.5,3.3,6.5l-2.2,2.2c0,0-4.9-2.9-6.5-3.3c-1.6-0.3-3.8,0.1-4.3,2.2
		c-0.5,2-2.2,6.5-2.2,6.5h-4.3c0,0-0.6-7.3-1.1-7.6c-0.5-0.3-1.7-2.2-5.4-1.1s-6.5,3.3-6.5,3.3l-2.2-2.2c0,0,2.8-5.8,3.3-6.5
		c0.5-0.7,1-3-1.1-4.3c-2.1-1.4-7.6-2.2-7.6-2.2v-4.3c0,0,5.4-1,6.5-1.1c1.2-0.1,3.3-3,2.2-5.4c-1.1-2.4-3.3-6.5-3.3-6.5l3.3-2.2
		c0,0,2.8,2.9,5.4,3.3c2.6,0.4,3.3,0.1,4.3-1.1c1-1.2,1.6-3.6,2.2-7.6h4.3c0,0-0.2,7.3,4.3,8.7c1.9,0.6,3.1-0.1,3.3,0
		c0.2,0.1,5.4-3.3,5.4-3.3l2.2,2.2c0,0-2.9,4.6-3.3,5.4c-0.4,0.8-1.2,5.4,2.2,6.5c3.4,1.1,6.5,1.1,6.5,1.1v4.3c0,0-6,0.7-6.5,1.1
		C40.8,28.6,38.1,29.7,39.1,33.7L39.1,33.7z"/>
</g>
<rect x="20.3" y="24" class="st0" width="9.4" height="2"/>
<rect x="20.3" y="24" transform="matrix(-1.836970e-016 1 -1 -1.836970e-016 49.9996 2.142865e-004)" class="st0" width="9.4" height="2"/>
</svg>
