<?xml version="1.0" encoding="utf-8"?>
<!-- Generator: Adobe Illustrator 19.0.0, SVG Export Plug-In . SVG Version: 6.00 Build 0)  -->
<svg version="1.1" id="图层_1" xmlns="http://www.w3.org/2000/svg" xmlns:xlink="http://www.w3.org/1999/xlink" x="0px" y="0px"
	 viewBox="-224 226 50 50" style="enable-background:new -224 226 50 50;" xml:space="preserve">
<style type="text/css">
	.st0{fill:#33a9fc;}
</style>
<g id="XMLID_1_">
	<path id="XMLID_6_" class="st0" d="M-185.2,272.4h-27c-1,0-1.7,0.8-1.7,1.8c0,1.1,0.8,1.8,1.7,1.8h27c1,0,1.7-0.8,1.7-1.8
		C-183.5,273.2-184.3,272.4-185.2,272.4z"/>
	<path id="XMLID_5_" class="st0" d="M-200.8,251.7l5.6-4.5l-5.6-4.1V251.7z"/>
	<path id="XMLID_2_" class="st0" d="M-174.2,226h-48.5c-2.7,0-4.8,2.3-4.8,4.9v33.1c0,2.7,2.1,4.9,4.8,4.9h48.6
		c2.6,0,4.8-2.2,4.8-4.9v-33.1C-169.4,228.3-171.5,226-174.2,226z M-191.8,249.1l-0.1,0.1l-8.2,6.6c-0.5,0.5-1.2,0.7-1.9,0.7
		c-1.3,0-2.2-1-2.2-2.4v-13.5c0-1.3,1-2.4,2.4-2.4c0.6,0,1.2,0.2,1.6,0.6l8.4,6.4l0.1,0.1c0.5,0.5,0.8,1.2,0.8,1.9
		C-191,247.9-191.3,248.7-191.8,249.1z"/>
</g>
</svg>
