<?xml version="1.0" encoding="utf-8"?>
<!-- Generator: Adobe Illustrator 19.0.0, SVG Export Plug-In . SVG Version: 6.00 Build 0)  -->
<svg version="1.1" id="图层_1" xmlns="http://www.w3.org/2000/svg" xmlns:xlink="http://www.w3.org/1999/xlink" x="0px" y="0px"
	 viewBox="0 0 50 50" style="enable-background:new 0 0 50 50;" xml:space="preserve">
<style type="text/css">
	.st0{fill:#E67E22;}
</style>
<path id="XMLID_5_" class="st0" d="M12.5,3.4C16.3,1.1,20.5,0,25,0c4.5,0,8.7,1.1,12.5,3.4s6.9,5.3,9.1,9.1c2.2,3.8,3.4,8,3.4,12.5
	s-1.1,8.7-3.4,12.5c-2.2,3.8-5.3,6.9-9.1,9.1S29.5,50,25,50c-4.5,0-8.7-1.1-12.5-3.4c-3.8-2.2-6.9-5.3-9.1-9.1S0,29.5,0,25
	s1.1-8.7,3.4-12.5C5.6,8.6,8.6,5.6,12.5,3.4C12.5,3.4,8.6,5.6,12.5,3.4L12.5,3.4L12.5,3.4z M37.3,12.7C33.9,9.3,29.8,7.6,25,7.6
	s-8.9,1.7-12.3,5.1C9.3,16.1,7.6,20.2,7.6,25c0,4.8,1.7,8.9,5.1,12.3c3.4,3.4,7.5,5.1,12.3,5.1s8.9-1.7,12.3-5.1
	c3.4-3.4,5.1-7.5,5.1-12.3C42.4,20.2,40.7,16.1,37.3,12.7C37.3,12.7,40.7,16.1,37.3,12.7L37.3,12.7L37.3,12.7z M33.3,25.1l-12.5,8.4
	V16.7L33.3,25.1L33.3,25.1z"/>
</svg>
